<svg width="20" height="20" viewBox="0 0 20 20" fill="none" xmlns="http://www.w3.org/2000/svg">
<g clip-path="url(#clip0_114_30)">
<rect width="20" height="20" rx="10" fill="#1B0300"/>
<path d="M6.96594 14V5.27273H12.7444V6.79403H8.81112V8.87358H12.3608V10.3949H8.81112V14H6.96594Z" fill="#EA580C"/>
<path d="M14.4076 14.1477C14.0326 14.1477 13.7107 14.0152 13.4417 13.75C13.1766 13.4811 13.044 13.1591 13.044 12.7841C13.044 12.4129 13.1766 12.0947 13.4417 11.8295C13.7107 11.5644 14.0326 11.4318 14.4076 11.4318C14.7713 11.4318 15.0895 11.5644 15.3622 11.8295C15.6349 12.0947 15.7713 12.4129 15.7713 12.7841C15.7713 13.0341 15.7069 13.2633 15.5781 13.4716C15.4531 13.6761 15.2883 13.8409 15.0838 13.9659C14.8792 14.0871 14.6538 14.1477 14.4076 14.1477Z" fill="white"/>
</g>
<defs>
<clipPath id="clip0_114_30">
<rect width="20" height="20" rx="10" fill="white"/>
</clipPath>
</defs>
</svg>
